<svg viewBox="0 0 1666.66 1666.66" xmlns="http://www.w3.org/2000/svg"><path d="M104.24 677.39c-57.43,0 -104.24,46.82 -104.24,104.04l0 104.67c0,57.2 46.82,103.82 104.24,103.82 59.26,0 118.52,0 177.78,0 12.26,43.32 29.53,84.54 51.07,123.04 -42,42 -83.91,83.75 -125.88,125.72 -40.46,40.68 -40.46,106.78 0.22,147.46l73.73 73.74c40.47,40.68 106.57,40.68 147.05,0 41.98,-42 83.92,-83.98 125.92,-125.98 38.48,21.52 79.69,38.75 122.99,51 0,59.32 -0.16,118.26 -0.16,177.52 0,57.63 46.82,104.24 104.04,104.24l104.46 0c57.41,0 104.04,-46.61 104.04,-104.24 0,-59.13 0.15,-118.28 0.15,-177.55 43.29,-12.25 84.48,-29.49 122.95,-51.01 42.11,42.11 83.61,83.98 125.64,126.02 40.68,40.68 106.79,40.68 147.47,0l73.74 -73.74c40.24,-40.68 40.24,-106.78 0,-147.46 -41.96,-41.94 -83.89,-83.83 -125.85,-125.79 21.53,-38.47 38.78,-79.67 51.04,-122.96 59.26,0 118.52,0 177.78,0 57.19,0 104.24,-46.62 104.24,-103.82l0 -104.67c0,-57.21 -47.05,-104.03 -104.24,-104.03 -59.24,0 -118.48,0 -177.72,0 -12.25,-43.33 -29.49,-84.54 -51.02,-123.04 41.93,-41.93 83.84,-83.79 125.76,-125.7 40.68,-40.47 40.25,-106.79 0,-147.25l-73.74 -73.75c-40.68,-40.46 -106.78,-40.46 -147.47,0 -42.04,41.87 -83.46,83.64 -125.5,125.67 -38.51,-21.56 -79.75,-38.82 -123.09,-51.09 0,-59.35 -0.16,-118.56 -0.16,-177.76 0,-57.22 -46.62,-104.04 -104.04,-104.04l-104.46 0c-57.21,0 -104.04,46.82 -104.04,104.04 0,59.32 0.16,118.33 0.16,177.72 -43.35,12.26 -84.6,29.53 -123.13,51.08 -41.94,-41.94 -83.79,-83.81 -125.78,-125.63 -40.47,-40.46 -106.57,-40.46 -147.25,0l-73.75 73.75c-40.46,40.46 -40.68,106.78 0,147.25 41.95,41.94 83.83,83.66 125.8,125.64 -21.55,38.51 -38.8,79.76 -51.06,123.11 -59.24,0 -118.48,0 -177.72,0zm338.91 325.51l559.54 -559.54c-51.89,-22.55 -109.16,-35.06 -169.35,-35.06 -234.85,0 -425.24,190.39 -425.24,425.24 0,60.19 12.5,117.46 35.06,169.35z"/></svg>