<svg xmlns="http://www.w3.org/2000/svg" width="512px" height="512px" viewBox="0 0 512 512">
	<style>
		path:last-of-type {
			fill: #fff;
		}
		@media ( prefers-color-scheme: dark ) {
			path:first-of-type {
				fill: #fff;
			}
			path:last-of-type {
				fill: #000;
			}
		}
	</style>
	<path d="M31.915,208.414h21.678c5.142-21.871,13.795-42.438,25.32-61.055l-15.365-15.36 c-12.497-12.433-12.429-32.807,0-45.236l22.655-22.655c12.497-12.429,32.803-12.429,45.236,0l15.36,15.296 c18.618-11.456,39.121-20.109,61.055-25.32V32.411c0-17.576,14.383-31.959,31.959-31.959h32.091 c17.637,0,31.96,14.383,31.96,31.959v21.673c21.934,5.211,42.438,13.864,61.055,25.32l15.359-15.296 c12.498-12.429,32.805-12.429,45.302,0l22.654,22.655c12.364,12.429,12.497,32.803,0,45.236l-15.364,15.36 c11.456,18.618,20.178,39.185,25.385,61.055h21.613c17.57,0,32.023,14.383,32.023,31.959v32.156 c0,17.572-14.453,31.894-32.023,31.894h-21.613c-5.207,22-13.929,42.567-25.385,61.056l15.364,15.36 c12.364,12.498,12.364,32.804,0,45.301l-22.654,22.655c-12.497,12.496-32.804,12.496-45.302,0l-15.359-15.365 c-18.617,11.457-39.121,20.049-61.055,25.256v21.609c0,17.705-14.323,32.023-31.96,32.023h-32.091 c-17.576,0-31.959-14.318-31.959-32.023v-21.609c-21.871-5.207-42.438-13.799-61.055-25.256l-15.36,15.365 c-12.433,12.496-32.739,12.496-45.172,0L63.616,426.14c-12.497-12.497-12.497-32.803-0.068-45.301l15.365-15.36 c-11.525-18.488-20.178-39.056-25.32-61.056H31.915c-17.641,0-32.023-14.321-32.023-31.894v-32.156 C-0.108,222.797,14.274,208.414,31.915,208.414L31.915,208.414z"/>
	<path d="M255.89,112.473c14.516,0,28.577,2.147,41.855,6.116 L118.093,298.304c-4.033-13.277-6.18-27.339-6.18-41.854C111.913,176.91,176.414,112.473,255.89,112.473L255.89,112.473z"/>
</svg>