<svg viewBox="0 0 1666.7 1666.7" xmlns="http://www.w3.org/2000/svg"><path d="m833.33 0c460.24 0 833.33 373.09 833.33 833.33s-373.09 833.33-833.33 833.33-833.33-373.09-833.33-833.33 373.09-833.33 833.33-833.33z"/><path fill="#fc0" d="m1328.3 338.35c-126.67-126.67-301.67-205.01-494.98-205.01s-368.32 78.35-494.99 205.01c-126.67 126.67-205.01 301.67-205.01 494.98s78.35 368.32 205.01 494.99c126.67 126.67 301.67 205.01 494.99 205.01 193.31 0 368.32-78.35 494.98-205.01 126.67-126.67 205.01-301.67 205.01-494.99 0-193.31-78.35-368.32-205.01-494.98zm-244.99 100.46c82.84 0 150 67.16 150 150s-67.16 150-150 150-150-67.16-150-150 67.16-150 150-150zm-500 0c82.84 0 150 67.16 150 150s-67.16 150-150 150-150-67.16-150-150 67.16-150 150-150zm-50 784.57c-36.82 0-66.67-29.85-66.67-66.67s29.85-66.67 66.67-66.67h600c36.82 0 66.67 29.85 66.67 66.67s-29.85 66.67-66.67 66.67h-600z"/></svg>