<svg viewBox="0 0 1666.7 1666.7" xmlns="http://www.w3.org/2000/svg"><path d="m833.33 0c460.24 0 833.33 373.09 833.33 833.33s-373.09 833.33-833.33 833.33-833.33-373.09-833.33-833.33 373.09-833.33 833.33-833.33z"/><path fill="#fc0" d="m1328.3 338.35c-126.67-126.67-301.67-205.01-494.98-205.01s-368.32 78.35-494.99 205.01c-126.67 126.67-205.01 301.67-205.01 494.98s78.35 368.32 205.01 494.99c126.67 126.67 301.67 205.01 494.99 205.01 193.31 0 368.32-78.35 494.98-205.01 126.67-126.67 205.01-301.67 205.01-494.99 0-193.31-78.35-368.32-205.01-494.98zm-708.79 119.99c26.03-26.03 68.24-26.03 94.27 0s26.03 68.24 0 94.27l-36.2 36.2 36.2 36.2c26.03 26.03 26.03 68.24 0 94.27s-68.24 26.03-94.27 0l-36.2-36.2-36.2 36.2c-26.03 26.03-68.24 26.03-94.27 0s-26.03-68.24 0-94.27l36.2-36.2-36.2-36.2c-26.03-26.03-26.03-68.24 0-94.27s68.24-26.03 94.27 0l36.2 36.2 36.2-36.2zm550.78 676.23c30.63 20.42 38.91 61.81 18.49 92.45-20.42 30.63-61.81 38.91-92.44 18.49l-63.02-42.02-63.02 42.02c-23.5 15.67-53.34 14.44-75.18-0.81l-61.8-41.2-63.03 42.02c-23.5 15.67-53.34 14.44-75.18-0.81l-61.8-41.2-63.02 42.02c-30.63 20.42-72.02 12.15-92.44-18.49-20.42-30.63-12.15-72.03 18.49-92.45l98.78-65.85c21.84-15.26 51.67-16.48 75.18-0.81l63.02 42.02 61.8-41.2c21.84-15.26 51.67-16.48 75.18-0.81l63.02 42.02 61.8-41.2c21.84-15.26 51.67-16.48 75.18-0.81l100 66.67zm-217.45-581.96c-26.03-26.03-26.03-68.24 0-94.27s68.24-26.03 94.27 0l36.2 36.2 36.2-36.2c26.03-26.03 68.24-26.03 94.27 0s26.03 68.24 0 94.27l-36.2 36.2 36.2 36.2c26.03 26.03 26.03 68.24 0 94.27s-68.24 26.03-94.27 0l-36.2-36.2-36.2 36.2c-26.03 26.03-68.24 26.03-94.27 0s-26.03-68.24 0-94.27l36.2-36.2-36.2-36.2z"/></svg>