<svg viewBox="0 0 1666.7 1666.7" xmlns="http://www.w3.org/2000/svg"><path d="m833.33 0c460.24 0 833.33 373.09 833.33 833.33s-373.09 833.33-833.33 833.33-833.33-373.09-833.33-833.33 373.09-833.33 833.33-833.33zm0 133.33c-386.63 0-700 313.37-700 700s313.37 700 700 700c386.62 0 700-313.37 700-700 0-386.62-313.37-700-700-700zm-300 1090c-36.82 0-66.67-29.85-66.67-66.67s29.85-66.67 66.67-66.67h600c36.82 0 66.67 29.85 66.67 66.67s-29.85 66.67-66.67 66.67h-600zm50-784.57c82.84 0 150 67.16 150 150s-67.15 150-150 150-150-67.16-150-150 67.16-150 150-150zm500 0c82.84 0 150 67.16 150 150s-67.16 150-150 150-150-67.16-150-150 67.16-150 150-150z"/></svg>