<svg viewBox="0 0 1666.7 1666.7" xmlns="http://www.w3.org/2000/svg"><path d="m833.33 0c460.24 0 833.33 373.09 833.33 833.33s-373.09 833.33-833.33 833.33-833.33-373.09-833.33-833.33 373.09-833.33 833.33-833.33z"/><path fill="#fc0" d="m1328.3 338.35c-126.67-126.67-301.67-205.01-494.98-205.01s-368.32 78.35-494.99 205.01c-126.67 126.67-205.01 301.67-205.01 494.98s78.35 368.32 205.01 494.99c126.67 126.67 301.67 205.01 494.99 205.01 193.31 0 368.32-78.35 494.98-205.01 126.67-126.67 205.01-301.67 205.01-494.99 0-193.31-78.35-368.32-205.01-494.98zm-208.79 690.26c26.03-26.03 68.24-26.03 94.27 0s26.03 68.24 0 94.27c-105.07 105.07-242.77 157.6-380.47 157.6s-275.4-52.54-380.47-157.6c-26.03-26.03-26.03-68.24 0-94.27s68.24-26.03 94.27 0c79.03 79.02 182.61 118.54 286.2 118.54s207.17-39.52 286.2-118.54zm-36.2-589.8c82.84 0 150 67.16 150 150s-67.16 150-150 150-150-67.16-150-150 67.16-150 150-150zm-500 0c82.84 0 150 67.16 150 150s-67.16 150-150 150-150-67.16-150-150 67.16-150 150-150z"/></svg>